<!-- Generator: Adobe Illustrator 23.0.1, SVG Export Plug-In  -->
<svg version="1.1" xmlns="http://www.w3.org/2000/svg" xmlns:xlink="http://www.w3.org/1999/xlink" x="0px" y="0px" width="170px"
	 height="228px" viewBox="0 0 170 228" style="enable-background:new 0 0 170 228;" xml:space="preserve">
<style type="text/css">
	.st0{fill:rgb(247, 250, 252);}
</style>
<defs>
</defs>
<g>
	<path class="st0" d="M106.9,8c10.4,0,20.1,4.1,27.1,11.7c7.1,7.5,11,17.7,11,28.6V90v8h8h5c2.2,0,4,1.8,4,4v114c0,2.2-1.8,4-4,4H12
		c-2.2,0-4-1.8-4-4V102c0-2.2,1.8-4,4-4h6h8v-8V48.2C26,26.1,44,8,66.1,8H106.9 M42,98h8h73h8v-8V59.8c0-24-5.7-37.8-34.6-37.8H80.6
		c-13.6,0-22.9,2.8-29.1,8.8C45,37,42,46.2,42,59.8V90V98 M70.5,169.5v10c0,7.4,6.1,13.5,13.5,13.5h2c7.4,0,13.5-6.1,13.5-13.5v-10
		c8.9-4.6,14.5-13.3,14.5-23c0-14.6-13-26.5-29-26.5s-29,11.9-29,26.5C56,156.2,61.6,164.8,70.5,169.5 M106.9,0H66.1
		C39.6,0,18,21.7,18,48.2V90h-6c-6.6,0-12,5.4-12,12v114c0,6.6,5.4,12,12,12h146c6.6,0,12-5.4,12-12V102c0-6.6-5.4-12-12-12h-5V48.2
		C153,21.7,133.4,0,106.9,0L106.9,0z M50,90V59.8C50,37.6,58.5,30,80.6,30h15.7c22.1,0,26.6,7.6,26.6,29.8V90H50L50,90z M84,185
		c-3,0-5.5-2.5-5.5-5.5v-15.4c-8.4-2.4-14.5-9.4-14.5-17.6c0-10.2,9.4-18.5,21-18.5c11.6,0,21,8.3,21,18.5c0,8.2-6.1,15.2-14.5,17.6
		v15.4c0,3-2.5,5.5-5.5,5.5H84L84,185z"/>
</g>
</svg>
