<svg xmlns="http://www.w3.org/2000/svg" viewBox="0 0 161.93 165">
  <defs>
    <style>
      .cls-1 {
        fill: rgb(247, 250, 252);
      }
    </style>
  </defs>
  <title>Middel 1</title>
  <g id="Laag_2" data-name="Laag 2">
    <g id="Laag_1-2" data-name="Laag 1">
      <g>
        <path class="cls-1" d="M81,8a34.5,34.5,0,1,1-34.5,34.5A34.54,34.54,0,0,1,81,8m0-8a42.5,42.5,0,1,0,42.5,42.5A42.5,42.5,0,0,0,81,0Z"/>
        <path class="cls-1" d="M35.63,94.47a66.45,66.45,0,0,0,93.09,2,73.16,73.16,0,0,1,25.21,55,5.57,5.57,0,0,1-5.5,5.49H13.49A5.57,5.57,0,0,1,8,151.51a72.73,72.73,0,0,1,27.63-57m1.25-10.76A81.06,81.06,0,0,0,0,151.51H0A13.53,13.53,0,0,0,13.49,165H148.43a13.53,13.53,0,0,0,13.5-13.49h0a81,81,0,0,0-34-65.81,58.44,58.44,0,0,1-91.06-2Z"/>
      </g>
    </g>
  </g>
</svg>
